<svg xmlns="http://www.w3.org/2000/svg" viewBox="0 0 100 100" width="100%" height="100%">
  <rect x="5" y="5" width="90" height="90" rx="12" fill="#000000" />

  <rect x="9" y="9" width="82" height="82" rx="8" fill="#D1D5DB" />

  <rect x="15" y="15" width="70" height="70" rx="4" fill="#FFFFFF" />

  <rect x="15" y="15" width="28" height="28" fill="#E53935" rx="2" />
  <rect x="20" y="20" width="18" height="18" fill="#C62828" rx="1" />

  <rect x="57" y="15" width="28" height="28" fill="#43A047" rx="2" />
  <rect x="62" y="20" width="18" height="18" fill="#2E7D32" rx="1" />

  <rect x="15" y="57" width="28" height="28" fill="#FDD835" rx="2" />
  <rect x="20" y="62" width="18" height="18" fill="#F9A825" rx="1" />

  <rect x="57" y="57" width="28" height="28" fill="#1E88E5" rx="2" />
  <rect x="62" y="62" width="18" height="18" fill="#1565C0" rx="1" />

  <rect x="20" y="48" width="20" height="4" fill="#E53935" rx="1" />
  <rect x="48" y="20" width="4" height="20" fill="#43A047" rx="1" />
  <rect x="48" y="60" width="4" height="20" fill="#FDD835" rx="1" />
  <rect x="60" y="48" width="20" height="4" fill="#1E88E5" rx="1" />

  <rect x="41" y="41" width="18" height="18" rx="4" fill="#F3F4F6" stroke="#000000" stroke-width="2"/>
  
  <circle cx="45.5" cy="45.5" r="1.5" fill="#000000" />
  <circle cx="54.5" cy="45.5" r="1.5" fill="#000000" />
  <circle cx="50" cy="50" r="1.5" fill="#000000" />
  <circle cx="45.5" cy="54.5" r="1.5" fill="#000000" />
  <circle cx="54.5" cy="54.5" r="1.5" fill="#000000" />
</svg>